<svg xmlns="http://www.w3.org/2000/svg" viewBox="0 0 48 48" width="32" height="32">
  <title>PHP</title>
  <ellipse cx="24" cy="24" rx="22" ry="14" fill="#8993be"/>
  <g>
    <path d="M13.5 32.5l2.2-13h5.5c2.2 0 3.2 1.3 2.9 3.3-0.2 1.2-0.8 2.1-2.1 2.5 1.2 0.2 1.7 1 1.5 2.4-0.3 2-1.5 2.8-3.8 2.8h-5.2zm3.1-7.3h2.1c0.9 0 1.3-0.3 1.5-1.2 0.2-1-0.2-1.3-1.1-1.3h-2.1l-0.4 2.5zm-0.8 4.6h2.2c1 0 1.5-0.3 1.7-1.2 0.2-1-0.2-1.3-1.2-1.3h-2.2l-0.5 2.5zM22.5 32.5l2.2-13h3.2c2.2 0 3.2 1.3 2.9 3.3-0.2 1.2-0.8 2.1-2.1 2.5 1.2 0.2 1.7 1 1.5 2.4-0.3 2-1.5 2.8-3.8 2.8h-3.1zm3.1-7.3h1.2c0.9 0 1.3-0.3 1.5-1.2 0.2-1-0.2-1.3-1.1-1.3h-1.2l-0.4 2.5zm-0.8 4.6h1.3c1 0 1.5-0.3 1.7-1.2 0.2-1-0.2-1.3-1.2-1.3h-1.3l-0.5 2.5zM31.5 32.5l2.2-13h5.5c2.2 0 3.2 1.3 2.9 3.3-0.2 1.2-0.8 2.1-2.1 2.5 1.2 0.2 1.7 1 1.5 2.4-0.3 2-1.5 2.8-3.8 2.8h-5.2zm3.1-7.3h2.1c0.9 0 1.3-0.3 1.5-1.2 0.2-1-0.2-1.3-1.1-1.3h-2.1l-0.4 2.5zm-0.8 4.6h2.2c1 0 1.5-0.3 1.7-1.2 0.2-1-0.2-1.3-1.2-1.3h-2.2l-0.5 2.5z" fill="#232531"/>
  </g>
</svg>
